<?xml version="1.0" standalone="no"?>
<!DOCTYPE svg PUBLIC "-//W3C//DTD SVG 20010904//EN"
 "http://www.w3.org/TR/2001/REC-SVG-20010904/DTD/svg10.dtd">
<svg version="1.0" xmlns="http://www.w3.org/2000/svg"
 width="1024.000000pt" height="1024.000000pt" viewBox="0 0 1024.000000 1024.000000"
 preserveAspectRatio="xMidYMid meet">
<metadata>
Created by potrace 1.11, written by Peter Selinger 2001-2013
</metadata>
<g transform="translate(0.000000,1024.000000) scale(0.100000,-0.100000)"
fill="#000000" stroke="none">
<path d="M830 10225 c-417 -76 -742 -403 -815 -821 -13 -76 -15 -587 -15
-4284 0 -3697 2 -4208 15 -4284 74 -421 400 -747 821 -821 76 -13 587 -15
4284 -15 3697 0 4208 2 4284 15 421 74 747 400 821 821 13 76 15 587 15 4284
0 3697 -2 4208 -15 4284 -74 421 -400 747 -821 821 -76 13 -585 15 -4293 14
-3490 -1 -4219 -3 -4281 -14z m8105 -1049 c115 -37 198 -89 295 -186 136 -135
185 -249 184 -420 0 -88 -5 -116 -27 -172 -56 -145 -125 -228 -344 -410 -388
-324 -737 -650 -1593 -1488 -251 -245 -536 -523 -634 -618 -98 -96 -176 -175
-174 -176 1 -1 71 -42 153 -91 677 -398 1060 -778 1116 -1109 44 -261 -97
-528 -350 -660 -189 -98 -354 -106 -519 -25 -73 35 -103 60 -255 207 -285 276
-549 502 -821 704 -88 65 -164 118 -170 118 -14 0 -1027 -1016 -1547 -1550
-1358 -1397 -1825 -1849 -2104 -2037 -345 -232 -728 -231 -963 3 -126 125
-180 278 -169 473 8 147 39 228 180 465 338 568 438 824 671 1731 199 774 330
1157 529 1549 274 540 627 875 1072 1021 522 171 1187 95 2007 -230 l158 -63
224 227 c267 270 398 412 769 836 792 905 908 1034 1202 1333 173 177 426 413
509 476 63 48 161 94 241 112 93 21 261 12 360 -20z"/>
<path d="M3990 5605 c-172 -38 -324 -129 -467 -279 -230 -240 -422 -630 -583
-1186 -77 -266 -218 -865 -207 -877 8 -7 216 161 388 314 301 268 639 619
1219 1268 162 182 345 385 408 452 l113 122 -52 27 c-91 46 -274 113 -381 140
-130 33 -337 42 -438 19z"/>
</g>
</svg>
